<svg width="222" height="104" viewBox="0 0 222 104" fill="none" xmlns="http://www.w3.org/2000/svg">
<g clip-path="url(#clip0_5_65)">
<path d="M85.4474 118.687L104.3 130.002C110.732 128.537 117.53 126.726 124.455 124.489L107.265 115.113L130.076 122.585C137.292 120.028 144.534 117.009 151.509 113.456L136.733 106.225L155.018 111.608C163.466 107.019 171.35 101.654 178.094 95.4279L156.196 86.1085L181.244 92.3633C188.431 85.0139 193.904 76.6851 196.866 67.3693L184.531 62.9993L197.405 65.5737C198.708 60.9112 199.349 56.0883 199.307 51.2472C199.307 51.2472 189.127 50.5969 174.735 51.8883L170.382 63.4429L168.722 52.5201C161.442 53.3983 153.385 54.7879 145.091 56.9734L145.817 69.0383L141.342 58.0133C137.2 59.2184 133.005 60.6332 128.814 62.2956L128.941 70.2094L126.48 63.2486C120.904 65.5762 115.511 68.322 110.349 71.4625L108.802 89.3631L106.298 74.0563C101.113 77.5334 96.2337 81.4445 91.7114 85.7474L89.8678 100.048L88.6396 88.7833C77.7658 99.9483 67.5689 115.053 59 136.1C59 136.1 75.5007 135.911 98.2478 131.303L85.4474 118.687Z" fill="url(#paint0_linear_5_65)"/>
<mask id="mask0_5_65" style="mask-type:luminance" maskUnits="userSpaceOnUse" x="59" y="51" width="141" height="86">
<path fill-rule="evenodd" clip-rule="evenodd" d="M85.4474 118.687L104.3 130.002C110.732 128.537 117.53 126.726 124.455 124.489L107.265 115.113L130.076 122.585C137.292 120.028 144.534 117.009 151.509 113.456L136.733 106.225L155.018 111.608C163.466 107.019 171.35 101.654 178.094 95.4279L156.196 86.1085L181.244 92.3633C188.431 85.0139 193.904 76.6851 196.866 67.3693L184.531 62.9993L197.405 65.5737C198.708 60.9112 199.349 56.0883 199.307 51.2472C199.307 51.2472 189.127 50.5969 174.735 51.8883L170.382 63.4429L168.722 52.5201C161.442 53.3983 153.385 54.7879 145.091 56.9734L145.817 69.0383L141.342 58.0133C137.2 59.2184 133.005 60.6332 128.814 62.2956L128.941 70.2094L126.48 63.2486C120.904 65.5762 115.511 68.322 110.349 71.4625L108.802 89.3631L106.298 74.0563C101.113 77.5334 96.2337 81.4445 91.7114 85.7474L89.8678 100.048L88.6396 88.7833C77.7658 99.9483 67.5689 115.053 59 136.1C59 136.1 75.5007 135.911 98.2478 131.303L85.4474 118.687Z" fill="white"/>
</mask>
<g mask="url(#mask0_5_65)">
<path d="M207.982 148.754L250.115 83.9259C250.115 83.9259 134.66 54.8268 60.4425 60.5235C-13.7749 66.2201 46.4589 122.947 46.4589 122.947L184.632 127.165L204.107 124.34" fill="url(#paint1_linear_5_65)"/>
<mask id="mask1_5_65" style="mask-type:luminance" maskUnits="userSpaceOnUse" x="23" y="59" width="228" height="90">
<path fill-rule="evenodd" clip-rule="evenodd" d="M207.982 148.754L250.115 83.9259C250.115 83.9259 134.66 54.8268 60.4425 60.5235C-13.7749 66.2201 46.4589 122.947 46.4589 122.947L184.632 127.165L204.107 124.34" fill="white"/>
</mask>
<g mask="url(#mask1_5_65)">
<path d="M137.752 56.7257C83.2498 57.4208 170.104 98.3541 146.621 96.767C123.139 95.1799 51.2793 74.2582 51.2793 74.2582L46.5221 50.3356L121.569 45.1364" fill="url(#paint2_linear_5_65)"/>
</g>
</g>
<path d="M98.5521 110.833L111.03 97.0893C110.878 91.5219 110.5 85.5946 109.791 79.4918L99.1914 92.1784L109.141 74.5235C108.215 68.1275 106.91 61.6332 105.119 55.2716L96.6937 66.3132L104.168 52.0608C101.761 44.3095 98.6194 36.8962 94.5769 30.2854L83.2482 46.879L92.559 27.1716C87.6594 20.0083 81.6661 14.1026 74.4413 10.1136L68.7881 19.6065L73.0434 9.37153C69.398 7.52296 65.5103 6.1971 61.495 5.43303C61.495 5.43303 59.2773 13.7548 57.9724 25.8845L66.8215 31.3942L57.5036 30.9671C56.9696 37.7212 56.8991 44.504 57.2927 51.2678L67.402 52.6572L57.5353 54.5434C57.8498 58.1722 58.3292 61.8789 59.0144 65.623L65.5877 66.8235L59.4184 67.7131C60.4257 72.714 61.8097 77.6316 63.5585 82.4239L78.1248 86.658L65.0378 86.2065C67.0616 91.0725 69.495 95.758 72.3118 100.212L83.8481 104.098L74.3187 103.256C81.7694 114.102 92.5938 125.036 108.607 135.603C108.607 135.603 111.173 121.91 111.11 102.315L98.5521 110.833Z" fill="url(#paint3_linear_5_65)"/>
<mask id="mask2_5_65" style="mask-type:luminance" maskUnits="userSpaceOnUse" x="57" y="5" width="55" height="131">
<path fill-rule="evenodd" clip-rule="evenodd" d="M98.5521 110.833L111.03 97.0893C110.878 91.5219 110.5 85.5946 109.791 79.4918L99.1914 92.1784L109.141 74.5235C108.215 68.1275 106.91 61.6332 105.119 55.2716L96.6937 66.3132L104.168 52.0608C101.761 44.3095 98.6194 36.8962 94.5769 30.2854L83.2482 46.879L92.559 27.1716C87.6594 20.0083 81.6661 14.1026 74.4413 10.1136L68.7881 19.6065L73.0434 9.37153C69.398 7.52296 65.5103 6.1971 61.495 5.43303C61.495 5.43303 59.2773 13.7548 57.9724 25.8845L66.8215 31.3942L57.5036 30.9671C56.9696 37.7212 56.8991 44.504 57.2927 51.2678L67.402 52.6572L57.5353 54.5434C57.8498 58.1722 58.3292 61.8789 59.0144 65.623L65.5877 66.8235L59.4184 67.7131C60.4257 72.714 61.8097 77.6316 63.5585 82.4239L78.1248 86.658L65.0378 86.2065C67.0616 91.0725 69.495 95.758 72.3118 100.212L83.8481 104.098L74.3187 103.256C81.7694 114.102 92.5938 125.036 108.607 135.603C108.607 135.603 111.173 121.91 111.11 102.315L98.5521 110.833Z" fill="white"/>
</mask>
<g mask="url(#mask2_5_65)">
<path d="M143.66 14.3353L96.9338 -31.2446C96.9338 -31.2446 53.7945 59.5505 46.2683 121.941C38.7421 184.332 95.6474 143.817 95.6474 143.817L121.933 30.1075L122.807 13.5162" fill="url(#paint4_linear_5_65)"/>
<mask id="mask3_5_65" style="mask-type:luminance" maskUnits="userSpaceOnUse" x="45" y="-32" width="99" height="189">
<path fill-rule="evenodd" clip-rule="evenodd" d="M143.66 14.3353L96.9338 -31.2446C96.9338 -31.2446 53.7945 59.5505 46.2683 121.941C38.7421 184.332 95.6474 143.817 95.6474 143.817L121.933 30.1075L122.807 13.5162" fill="white"/>
</mask>
<g mask="url(#mask3_5_65)">
<path d="M55.877 57.3035C47.4618 102.545 95.6816 37.3836 90.4938 56.565C85.306 75.7464 56.129 131.794 56.129 131.794L35.5366 131.787L43.6116 68.791" fill="url(#paint5_linear_5_65)"/>
</g>
</g>
<path d="M135.01 56C135.01 51.5799 131.427 47.9967 127.007 47.9967L89.5 47.9967L89.5 101.015L127.007 101.015C131.427 101.015 135.01 97.4317 135.01 93.0116L135.01 56Z" fill="#E5F9E2"/>
<path fill-rule="evenodd" clip-rule="evenodd" d="M98.9949 101.015H82.9882C78.5681 101.015 74.9849 97.4316 74.9849 93.0115V36.9882C74.9849 32.5681 78.5681 28.9849 82.9882 28.9849L115.688 28.9849C117.811 28.9849 119.846 29.8281 121.347 31.329L132.666 42.6474C134.167 44.1483 135.01 46.184 135.01 48.3066V56.9965" fill="#E5F9E2"/>
<path d="M98.9949 101.015H82.9882C78.5681 101.015 74.9849 97.4316 74.9849 93.0115V36.9882C74.9849 32.5681 78.5681 28.9849 82.9882 28.9849L115.688 28.9849C117.811 28.9849 119.846 29.8281 121.347 31.329L132.666 42.6474C134.167 44.1483 135.01 46.184 135.01 48.3066V56.9965V101.015H98.9949Z" stroke="#162630" stroke-width="6" stroke-linecap="round" stroke-linejoin="round"/>
<path d="M86.99 60.9984H111" stroke="#162630" stroke-width="6" stroke-linecap="round" stroke-linejoin="round"/>
<path d="M86.99 48.9935H98.995" stroke="#162630" stroke-width="6" stroke-linecap="round" stroke-linejoin="round"/>
<path fill-rule="evenodd" clip-rule="evenodd" d="M92.9925 85.0084V85.0084C89.6779 85.0072 86.9912 82.3205 86.99 79.0059V79.0059C86.9912 75.6913 89.6779 73.0046 92.9925 73.0034V73.0034C96.3071 73.0046 98.9938 75.6913 98.995 79.0059V79.0059C98.9938 82.3205 96.3071 85.0072 92.9925 85.0084V85.0084Z" stroke="#162630" stroke-width="6" stroke-linecap="round" stroke-linejoin="round"/>
<path fill-rule="evenodd" clip-rule="evenodd" d="M113.001 86.0088H123.005V101.015H113.001C111.896 101.015 111 100.119 111 99.0142V88.0096C111 86.9046 111.896 86.0088 113.001 86.0088Z" fill="white" stroke="#162630" stroke-width="6" stroke-linecap="round" stroke-linejoin="round"/>
<path fill-rule="evenodd" clip-rule="evenodd" d="M125.006 69.0015H133.009C134.114 69.0015 135.01 69.8973 135.01 71.0023V101.015H123.005V71.0023C123.005 69.8973 123.901 69.0015 125.006 69.0015Z" fill="white" stroke="#162630" stroke-width="6" stroke-linecap="round" stroke-linejoin="round"/>
<path fill-rule="evenodd" clip-rule="evenodd" d="M137.011 78.0054H145.014C146.119 78.0054 147.015 78.9012 147.015 80.0062V99.0141C147.015 100.119 146.119 101.015 145.014 101.015H135.01V80.0062C135.01 78.9012 135.906 78.0054 137.011 78.0054Z" fill="white" stroke="#162630" stroke-width="6" stroke-linecap="round" stroke-linejoin="round"/>
</g>
<defs>
<linearGradient id="paint0_linear_5_65" x1="56.2612" y1="142.102" x2="165.398" y2="174.794" gradientUnits="userSpaceOnUse">
<stop stop-color="#8FF490"/>
<stop offset="1" stop-color="#45CEB5"/>
</linearGradient>
<linearGradient id="paint1_linear_5_65" x1="197.269" y1="9.66641" x2="189.822" y2="25.2158" gradientUnits="userSpaceOnUse">
<stop stop-color="#8FF490"/>
<stop offset="1" stop-color="#45CEB5"/>
</linearGradient>
<linearGradient id="paint2_linear_5_65" x1="104.628" y1="-14.2284" x2="63.8747" y2="59.8496" gradientUnits="userSpaceOnUse">
<stop stop-color="#8FF490"/>
<stop offset="1" stop-color="#45CEB5"/>
</linearGradient>
<linearGradient id="paint3_linear_5_65" x1="107.557" y1="135.037" x2="151.3" y2="49.3574" gradientUnits="userSpaceOnUse">
<stop stop-color="#8FF490"/>
<stop offset="1" stop-color="#45CEB5"/>
</linearGradient>
<linearGradient id="paint4_linear_5_65" x1="26.8246" y1="2.39419" x2="38.7417" y2="9.86325" gradientUnits="userSpaceOnUse">
<stop stop-color="#8FF490"/>
<stop offset="1" stop-color="#45CEB5"/>
</linearGradient>
<linearGradient id="paint5_linear_5_65" x1="-4.67052" y1="76.4771" x2="50.4386" y2="116.655" gradientUnits="userSpaceOnUse">
<stop stop-color="#8FF490"/>
<stop offset="1" stop-color="#45CEB5"/>
</linearGradient>
<clipPath id="clip0_5_65">
<rect width="222" height="104" rx="16" fill="white"/>
</clipPath>
</defs>
</svg>
