<svg width="214" height="104" viewBox="0 0 214 104" fill="none" xmlns="http://www.w3.org/2000/svg">
<g clip-path="url(#clip0_5_70)">
<path d="M100.25 127.22L122.237 127.078C126.969 122.481 131.832 117.399 136.584 111.887L117.025 112.819L140.394 107.337C145.227 101.4 149.842 95.055 153.952 88.3922L137.57 89.9016L155.988 84.9885C160.816 76.6751 164.759 67.992 167.281 59.1668L143.731 62.5967L168.377 54.9109C170.693 44.8956 171.036 34.9353 168.72 25.4383L155.911 28.122L168.246 23.6246C166.934 18.9643 164.973 14.5121 162.419 10.399C162.419 10.399 153.386 15.1385 141.765 23.7273L144.058 35.8597L136.959 27.3943C131.197 31.9311 125.039 37.3084 119.092 43.4888L125.987 53.4158L116.431 46.3269C113.52 49.5108 110.673 52.901 107.958 56.5007L112.183 63.1938L106.46 58.5288C102.908 63.417 99.7311 68.5668 96.9557 73.9341L104.945 90.0276L94.8443 78.2567C92.2251 83.923 90.0917 89.8014 88.4673 95.8287L94.3307 109.001L87.4228 100.019C83.9427 115.211 83.0901 133.415 86.7185 155.848C86.7185 155.848 100.713 147.105 117.745 131.338L100.25 127.22Z" fill="url(#paint0_linear_5_70)"/>
<mask id="mask0_5_70" style="mask-type:luminance" maskUnits="userSpaceOnUse" x="84" y="10" width="87" height="146">
<path fill-rule="evenodd" clip-rule="evenodd" d="M100.25 127.22L122.237 127.078C126.969 122.481 131.832 117.399 136.584 111.887L117.025 112.819L140.394 107.337C145.227 101.4 149.842 95.055 153.952 88.3922L137.57 89.9016L155.988 84.9885C160.816 76.6751 164.759 67.992 167.281 59.1668L143.731 62.5967L168.377 54.9109C170.693 44.8956 171.036 34.9353 168.72 25.4383L155.911 28.122L168.246 23.6246C166.934 18.9643 164.973 14.5121 162.419 10.399C162.419 10.399 153.386 15.1385 141.765 23.7273L144.058 35.8597L136.959 27.3943C131.197 31.9311 125.039 37.3084 119.092 43.4888L125.987 53.4158L116.431 46.3269C113.52 49.5108 110.673 52.901 107.958 56.5007L112.183 63.1938L106.46 58.5288C102.908 63.417 99.7311 68.5668 96.9557 73.9341L104.945 90.0276L94.8443 78.2567C92.2251 83.923 90.0917 89.8014 88.4673 95.8287L94.3307 109.001L87.4228 100.019C83.9427 115.211 83.0901 133.415 86.7185 155.848C86.7185 155.848 100.713 147.105 117.745 131.338L100.25 127.22Z" fill="white"/>
</mask>
<g mask="url(#mask0_5_70)">
<path d="M220.544 89.1664L222.811 11.883C222.811 11.883 109.066 47.081 48.6412 90.549C-11.7841 134.017 69.166 151.137 69.166 151.137L189.372 82.8728L204.536 70.3303" fill="url(#paint1_linear_5_70)"/>
<mask id="mask1_5_70" style="mask-type:luminance" maskUnits="userSpaceOnUse" x="26" y="11" width="197" height="141">
<path fill-rule="evenodd" clip-rule="evenodd" d="M220.544 89.1664L222.811 11.883C222.811 11.883 109.066 47.081 48.6412 90.549C-11.7841 134.017 69.166 151.137 69.166 151.137L189.372 82.8728L204.536 70.3303" fill="white"/>
</mask>
<g mask="url(#mask1_5_70)">
<path d="M112.695 47.0945C66.507 76.0363 161.979 65.8218 141.097 76.6801C120.215 87.5385 47.9589 107.046 47.9589 107.046L31.4531 89.0879L92.8458 45.6133" fill="url(#paint2_linear_5_70)"/>
</g>
</g>
<path d="M107.357 113.696L110.867 95.4674C107.841 90.7913 104.435 85.9256 100.655 81.0824L98.2008 97.4307L97.5162 77.1766C93.3982 72.1957 88.9058 67.3278 84.0669 62.8263L82.6144 76.6387L81.5847 60.5785C75.4977 55.2099 68.9586 50.5123 62.0674 46.9688L61.0225 67.0335L58.7244 45.3588C50.8139 41.7892 42.6234 39.8625 34.378 40.2133L34.4871 51.2615L32.7981 40.3066C28.723 40.6238 24.713 41.5135 20.8862 42.9494C20.8862 42.9494 23.3204 51.2104 28.5149 62.249L38.9386 62.3521L30.7582 66.8338C33.8151 72.8802 37.2828 78.7099 41.1369 84.2821L50.4938 80.2106L43.0479 86.9536C45.2039 89.8893 47.5413 92.8058 50.074 95.6473L56.3126 93.2536L51.5061 97.2222C54.9676 100.97 58.7074 104.45 62.6936 107.633L77.3368 103.673L65.9245 110.094C70.184 113.198 74.6993 115.934 79.4219 118.273L91.2959 115.591L82.7193 119.829C94.7238 125.217 109.656 128.926 128.829 129.622C128.829 129.622 123.898 116.592 113.653 99.8893L107.357 113.696Z" fill="url(#paint3_linear_5_70)"/>
<mask id="mask2_5_70" style="mask-type:luminance" maskUnits="userSpaceOnUse" x="20" y="40" width="109" height="90">
<path fill-rule="evenodd" clip-rule="evenodd" d="M107.357 113.696L110.867 95.4674C107.841 90.7913 104.435 85.9256 100.655 81.0824L98.2008 97.4307L97.5162 77.1766C93.3982 72.1957 88.9058 67.3278 84.0669 62.8263L82.6144 76.6387L81.5847 60.5785C75.4977 55.2099 68.9586 50.5123 62.0674 46.9688L61.0225 67.0335L58.7244 45.3588C50.8139 41.7892 42.6234 39.8625 34.378 40.2133L34.4871 51.2615L32.7981 40.3066C28.723 40.6238 24.713 41.5135 20.8862 42.9494C20.8862 42.9494 23.3204 51.2104 28.5149 62.249L38.9386 62.3521L30.7582 66.8338C33.8151 72.8802 37.2828 78.7099 41.1369 84.2821L50.4938 80.2106L43.0479 86.9536C45.2039 89.8893 47.5413 92.8058 50.074 95.6473L56.3126 93.2536L51.5061 97.2222C54.9676 100.97 58.7074 104.45 62.6936 107.633L77.3368 103.673L65.9245 110.094C70.184 113.198 74.6993 115.934 79.4219 118.273L91.2959 115.591L82.7193 119.829C94.7238 125.217 109.656 128.926 128.829 129.622C128.829 129.622 123.898 116.592 113.653 99.8893L107.357 113.696Z" fill="white"/>
</mask>
<g mask="url(#mask2_5_70)">
<path d="M95.6928 7.81643L32.077 -6.80933C32.077 -6.80933 42.4572 93.1758 68.4804 150.378C94.5035 207.58 122.033 143.378 122.033 143.378L85.3398 32.5878L77.4562 17.9631" fill="url(#paint4_linear_5_70)"/>
<mask id="mask3_5_70" style="mask-type:luminance" maskUnits="userSpaceOnUse" x="32" y="-7" width="91" height="182">
<path fill-rule="evenodd" clip-rule="evenodd" d="M95.6928 7.81643L32.077 -6.80933C32.077 -6.80933 42.4572 93.1758 68.4804 150.378C94.5035 207.58 122.033 143.378 122.033 143.378L85.3398 32.5878L77.4562 17.9631" fill="white"/>
</mask>
<g mask="url(#mask3_5_70)">
<path d="M43.0671 90.1734C59.4113 133.191 66.703 52.4566 72.2489 71.5376C77.7948 90.6185 82.0269 153.664 82.0269 153.664L64.4354 164.368L38.5663 106.364" fill="url(#paint5_linear_5_70)"/>
</g>
</g>
<rect x="70.9849" y="28.9849" width="72.03" height="72.03" rx="20" fill="#E5F9E2" stroke="#323232" stroke-width="6" stroke-linecap="round" stroke-linejoin="round"/>
<path fill-rule="evenodd" clip-rule="evenodd" d="M107.928 69.0019H104.875C103.795 69.0019 102.759 68.5725 101.996 67.8085C101.232 67.0444 100.804 66.0082 100.805 64.9282V54.7519C100.804 53.6719 101.232 52.6357 101.996 51.8716C102.759 51.1075 103.795 50.6782 104.875 50.6782H107.928C110.178 50.6782 112.002 52.5021 112.002 54.7519V64.9282C112.002 66.0086 111.573 67.0447 110.809 67.8087C110.045 68.5727 109.009 69.0019 107.928 69.0019Z" stroke="#323232" stroke-width="6" stroke-linecap="round" stroke-linejoin="round"/>
<path d="M120.806 64.8878C120.806 62.0699 123.09 59.7856 125.908 59.7856C128.726 59.7856 131.01 62.0699 131.01 64.8878C131.01 71.2624 120.814 71.2624 120.814 78.8096H131.01" stroke="#323232" stroke-width="6" stroke-linecap="round" stroke-linejoin="round"/>
<path d="M92.1496 50.6782H87.0634C84.8136 50.6782 82.9897 52.5021 82.9897 54.7519V64.9282C82.9897 67.178 84.8136 69.0019 87.0634 69.0019H92.1496" stroke="#323232" stroke-width="6" stroke-linecap="round" stroke-linejoin="round"/>
</g>
<defs>
<linearGradient id="paint0_linear_5_70" x1="87.5012" y1="162.399" x2="197.717" y2="133.556" gradientUnits="userSpaceOnUse">
<stop stop-color="#8FF490"/>
<stop offset="1" stop-color="#45CEB5"/>
</linearGradient>
<linearGradient id="paint1_linear_5_70" x1="139.051" y1="-24.0548" x2="140.778" y2="-6.90055" gradientUnits="userSpaceOnUse">
<stop stop-color="#8FF490"/>
<stop offset="1" stop-color="#45CEB5"/>
</linearGradient>
<linearGradient id="paint2_linear_5_70" x1="47.4995" y1="3.72194" x2="51.2222" y2="88.1882" gradientUnits="userSpaceOnUse">
<stop stop-color="#8FF490"/>
<stop offset="1" stop-color="#45CEB5"/>
</linearGradient>
<linearGradient id="paint3_linear_5_70" x1="127.638" y1="129.684" x2="120.434" y2="33.7549" gradientUnits="userSpaceOnUse">
<stop stop-color="#8FF490"/>
<stop offset="1" stop-color="#45CEB5"/>
</linearGradient>
<linearGradient id="paint4_linear_5_70" x1="-10.3061" y1="58.3869" x2="3.75704" y2="58.5678" gradientUnits="userSpaceOnUse">
<stop stop-color="#8FF490"/>
<stop offset="1" stop-color="#45CEB5"/>
</linearGradient>
<linearGradient id="paint5_linear_5_70" x1="1.32688" y1="138.042" x2="69.2926" y2="143.694" gradientUnits="userSpaceOnUse">
<stop stop-color="#8FF490"/>
<stop offset="1" stop-color="#45CEB5"/>
</linearGradient>
<clipPath id="clip0_5_70">
<rect width="214" height="104" rx="16" fill="white"/>
</clipPath>
</defs>
</svg>
