<svg width="212" height="104" viewBox="0 0 212 104" fill="none" xmlns="http://www.w3.org/2000/svg">
<g clip-path="url(#clip0_5_49)">
<path d="M112.316 105.909L133.829 110.451C139.431 106.966 145.265 103.036 151.081 98.6614L131.772 95.4091L155.773 95.027C161.759 90.2555 167.619 85.0382 173.052 79.4029L156.725 77.3904L175.767 76.5107C182.253 69.4157 187.955 61.771 192.297 53.6849L168.557 52.0229L194.275 49.76C198.669 40.4673 201.125 30.8082 200.883 21.0359L187.797 20.9313L200.806 19.1629C200.517 14.3302 199.548 9.56242 197.929 5C197.929 5 188.094 7.70796 174.911 13.6261L174.569 25.9684L169.434 16.1857C162.839 19.392 155.677 23.3351 148.551 28.1078L153.175 39.2752L145.347 30.3144C141.824 32.8056 138.321 35.512 134.902 38.4513L137.605 45.8903L133.007 40.114C128.496 44.134 124.295 48.4894 120.44 53.1428L124.82 70.5682L117.457 56.9169C113.692 61.8957 110.356 67.1853 107.486 72.7286L110.411 86.8474L105.573 76.6008C98.9387 90.7034 94.2302 108.309 93 131C93 131 108.535 125.436 128.533 113.656L112.316 105.909Z" fill="url(#paint0_linear_5_49)"/>
<mask id="mask0_5_49" style="mask-type:luminance" maskUnits="userSpaceOnUse" x="93" y="5" width="108" height="126">
<path fill-rule="evenodd" clip-rule="evenodd" d="M112.316 105.909L133.829 110.451C139.431 106.966 145.265 103.036 151.081 98.6614L131.772 95.4091L155.773 95.027C161.759 90.2555 167.619 85.0382 173.052 79.4029L156.725 77.3904L175.767 76.5107C182.253 69.4157 187.955 61.771 192.297 53.6849L168.557 52.0229L194.275 49.76C198.669 40.4673 201.125 30.8082 200.883 21.0359L187.797 20.9313L200.806 19.1629C200.517 14.3302 199.548 9.56242 197.929 5C197.929 5 188.094 7.70796 174.911 13.6261L174.569 25.9684L169.434 16.1857C162.839 19.392 155.677 23.3351 148.551 28.1078L153.175 39.2752L145.347 30.3144C141.824 32.8056 138.321 35.512 134.902 38.4513L137.605 45.8903L133.007 40.114C128.496 44.134 124.295 48.4894 120.44 53.1428L124.82 70.5682L117.457 56.9169C113.692 61.8957 110.356 67.1853 107.486 72.7286L110.411 86.8474L105.573 76.6008C98.9387 90.7034 94.2302 108.309 93 131C93 131 108.535 125.436 128.533 113.656L112.316 105.909Z" fill="white"/>
</mask>
<g mask="url(#mask0_5_49)">
<path d="M237.953 94.3355L256.62 19.3062C256.62 19.3062 137.99 29.4834 69.6964 59.0916C1.40271 88.6997 76.8527 122.66 76.8527 122.66L208.836 81.5503L226.322 72.5234" fill="url(#paint1_linear_5_49)"/>
<mask id="mask1_5_49" style="mask-type:luminance" maskUnits="userSpaceOnUse" x="41" y="19" width="216" height="104">
<path fill-rule="evenodd" clip-rule="evenodd" d="M237.953 94.3355L256.62 19.3062C256.62 19.3062 137.99 29.4834 69.6964 59.0916C1.40271 88.6997 76.8527 122.66 76.8527 122.66L208.836 81.5503L226.322 72.5234" fill="white"/>
</mask>
<g mask="url(#mask1_5_49)">
<path d="M141.533 30.2691C90.2421 48.7149 185.7 59.0587 162.985 65.2228C140.271 71.387 65.5179 75.0649 65.5179 75.0649L53.2133 54.0051L122.454 24.5963" fill="url(#paint2_linear_5_49)"/>
</g>
</g>
<path d="M90.9942 98.5941L96.0747 80.74C93.4671 75.8186 90.497 70.6753 87.152 65.5218L83.2862 81.5949L84.3648 61.358C80.6953 56.038 76.643 50.798 72.2138 45.8929L69.5661 59.5268L69.9363 43.4379C64.339 37.5605 58.233 32.3123 51.676 28.1831L48.8909 48.0811L48.4855 26.2886C40.9153 22.0449 32.9232 19.4135 24.6785 19.0463L23.8269 30.0621L23.0965 19.0019C19.0093 18.9637 14.9372 19.5014 11 20.5992C11 20.5992 12.7069 29.0406 16.9222 40.4889L27.2975 41.4977L18.7584 45.2514C21.2782 51.5406 24.226 57.6497 27.5812 63.5358L37.2566 60.2931L29.2527 66.3632C31.1454 69.4753 33.2204 72.584 35.4965 75.6348L41.9196 73.7925L36.7863 77.3282C39.909 81.3623 43.3321 85.1544 47.0265 88.6723L61.9585 86.0001L50.0312 91.4051C54.0048 94.867 58.2652 97.9852 62.7666 100.726L74.8287 99.0866L65.9163 102.563C77.407 108.974 91.9605 113.967 111 116.327C111 116.327 107.22 102.918 98.4658 85.3874L90.9942 98.5941Z" fill="url(#paint3_linear_5_49)"/>
<mask id="mask2_5_49" style="mask-type:luminance" maskUnits="userSpaceOnUse" x="11" y="19" width="100" height="98">
<path fill-rule="evenodd" clip-rule="evenodd" d="M90.9942 98.5941L96.0747 80.74C93.4671 75.8186 90.497 70.6753 87.152 65.5218L83.2862 81.5949L84.3648 61.358C80.6953 56.038 76.643 50.798 72.2138 45.8929L69.5661 59.5268L69.9363 43.4379C64.339 37.5605 58.233 32.3123 51.676 28.1831L48.8909 48.0811L48.4855 26.2886C40.9153 22.0449 32.9232 19.4135 24.6785 19.0463L23.8269 30.0621L23.0965 19.0019C19.0093 18.9637 14.9372 19.5014 11 20.5992C11 20.5992 12.7069 29.0406 16.9222 40.4889L27.2975 41.4977L18.7584 45.2514C21.2782 51.5406 24.226 57.6497 27.5812 63.5358L37.2566 60.2931L29.2527 66.3632C31.1454 69.4753 33.2204 72.584 35.4965 75.6348L41.9196 73.7925L36.7863 77.3282C39.909 81.3623 43.3321 85.1544 47.0265 88.6723L61.9585 86.0001L50.0312 91.4051C54.0048 94.867 58.2652 97.9852 62.7666 100.726L74.8287 99.0866L65.9163 102.563C77.407 108.974 91.9605 113.967 111 116.327C111 116.327 107.22 102.918 98.4658 85.3874L90.9942 98.5941Z" fill="white"/>
</mask>
<g mask="url(#mask2_5_49)">
<path d="M88.5774 -7.89809L26.4738 -27.9983C26.4738 -27.9983 28.1234 72.5106 49.0758 131.758C70.0282 191.006 103.034 129.44 103.034 129.44L76.1104 15.8796L69.5279 0.624992" fill="url(#paint4_linear_5_49)"/>
<mask id="mask3_5_49" style="mask-type:luminance" maskUnits="userSpaceOnUse" x="26" y="-28" width="78" height="186">
<path fill-rule="evenodd" clip-rule="evenodd" d="M88.5774 -7.89809L26.4738 -27.9983C26.4738 -27.9983 28.1234 72.5106 49.0758 131.758C70.0282 191.006 103.034 129.44 103.034 129.44L76.1104 15.8796L69.5279 0.624992" fill="white"/>
</mask>
<g mask="url(#mask3_5_49)">
<path d="M28.992 69.5727C41.535 113.848 55.8169 34.0532 59.6832 53.544C63.5495 73.0348 62.2854 136.21 62.2854 136.21L43.83 145.344L23.1009 85.311" fill="url(#paint5_linear_5_49)"/>
</g>
</g>
<path fill-rule="evenodd" clip-rule="evenodd" d="M119.678 35.3302C129.441 45.0933 129.441 60.9224 119.678 70.6855C109.915 80.4486 94.0854 80.4486 84.3223 70.6855C74.5592 60.9224 74.5592 45.0932 84.3223 35.3302C94.0855 25.567 109.915 25.567 119.678 35.3302Z" fill="#E5F9E2"/>
<path d="M119.678 35.3302C129.441 45.0933 129.441 60.9224 119.678 70.6855C109.915 80.4486 94.0854 80.4486 84.3223 70.6855C74.5592 60.9224 74.5592 45.0932 84.3223 35.3302C94.0855 25.567 109.915 25.567 119.678 35.3302" stroke="#162630" stroke-width="5.7692" stroke-linecap="round" stroke-linejoin="round"/>
<path d="M77 53.0078H88.588C92.928 53.0078 96.444 49.4918 96.444 45.1518V45.1518C96.444 43.0678 95.616 41.0678 94.144 39.5958L87.328 32.7798" stroke="#162630" stroke-width="5.7692" stroke-linecap="round" stroke-linejoin="round"/>
<path d="M118.5 69.5L114.54 63.4878C113.648 62.1478 112.144 61.3438 110.532 61.3438C108.708 61.3438 107.04 60.3118 106.224 58.6798L105.856 57.9398C105.176 56.5838 105.176 54.9878 105.856 53.6318L109.004 47.3398C109.82 45.7078 111.488 44.6758 113.312 44.6758L124 45" stroke="#162630" stroke-width="5.7692" stroke-linecap="round" stroke-linejoin="round"/>
<path d="M114 101H90" stroke="#162630" stroke-width="6" stroke-linecap="round" stroke-linejoin="round"/>
<path d="M74 81L76.544 78.456C90.6 92.512 113.4 92.516 127.456 78.456C141.512 64.4 141.512 41.6 127.456 27.544C126.092 26.18 124.624 24.988 123.112 23.888L126 21" stroke="#162630" stroke-width="6" stroke-linecap="round" stroke-linejoin="round"/>
<path d="M102 89V101" stroke="#162630" stroke-width="6" stroke-linecap="round" stroke-linejoin="round"/>
</g>
<defs>
<linearGradient id="paint0_linear_5_49" x1="92.3702" y1="137.567" x2="206.2" y2="132.848" gradientUnits="userSpaceOnUse">
<stop stop-color="#8FF490"/>
<stop offset="1" stop-color="#45CEB5"/>
</linearGradient>
<linearGradient id="paint1_linear_5_49" x1="182.431" y1="-33.6387" x2="180.467" y2="-16.51" gradientUnits="userSpaceOnUse">
<stop stop-color="#8FF490"/>
<stop offset="1" stop-color="#45CEB5"/>
</linearGradient>
<linearGradient id="paint2_linear_5_49" x1="87.0646" y1="-25.9882" x2="72.7208" y2="57.3344" gradientUnits="userSpaceOnUse">
<stop stop-color="#8FF490"/>
<stop offset="1" stop-color="#45CEB5"/>
</linearGradient>
<linearGradient id="paint3_linear_5_49" x1="109.808" y1="116.285" x2="110.97" y2="20.0927" gradientUnits="userSpaceOnUse">
<stop stop-color="#8FF490"/>
<stop offset="1" stop-color="#45CEB5"/>
</linearGradient>
<linearGradient id="paint4_linear_5_49" x1="-21.4161" y1="33.267" x2="-7.42192" y2="34.6696" gradientUnits="userSpaceOnUse">
<stop stop-color="#8FF490"/>
<stop offset="1" stop-color="#45CEB5"/>
</linearGradient>
<linearGradient id="paint5_linear_5_49" x1="-16.7512" y1="113.632" x2="50.466" y2="125.17" gradientUnits="userSpaceOnUse">
<stop stop-color="#8FF490"/>
<stop offset="1" stop-color="#45CEB5"/>
</linearGradient>
<clipPath id="clip0_5_49">
<rect width="212" height="104" rx="16" fill="white"/>
</clipPath>
</defs>
</svg>
