<svg width="180" height="180" viewBox="0 0 180 180" fill="none" xmlns="http://www.w3.org/2000/svg">
<circle cx="90" cy="90" r="90" fill="#FCFCFC"/>
<g clip-path="url(#clip0_11_238)">
<path d="M87.1263 53.4632H93.1474C93.8316 53.4632 94.379 52.9158 94.379 52.2316C94.379 51.5474 93.8316 51 93.1474 51H87.1263V53.4632ZM87.1263 59.2106H93.2842C94.1053 59.2106 94.6527 58.6632 94.6527 57.8421C94.6527 57.0211 94.1053 56.4737 93.2842 56.4737H87.1263V59.2106ZM96.8421 54.8316C97.6632 55.6527 98.2105 56.7474 98.2105 57.979C98.2105 60.4421 96.2948 62.3579 93.8316 62.3579H83.8421V47.9895H93.6948C96.0211 47.9895 97.9369 49.9053 97.9369 52.2316C97.8 53.1895 97.3895 54.1474 96.8421 54.8316ZM99.1684 79.4632H95.4737L94.379 77H86.3053L85.2105 79.4632H81.5158L88.6316 65.0948H91.9158L99.1684 79.4632ZM90.2737 68.7895L87.8106 73.9895H92.7369L90.2737 68.7895ZM95.2 82.6106H99.3053L92.0527 91.9158V96.979H88.6316V91.9158L81.379 82.6106H85.4842L90.4105 89.179L95.2 82.6106ZM114.221 82.6106V85.7579H104.642V88.2211H113.947V91.3685H104.642V94.1053H114.221V97.2527H101.221V82.6106H114.221ZM124.758 91.5053H122.158V96.979H118.737V82.6106H127.495C129.958 82.6106 131.874 84.6632 131.874 87.1263C131.874 89.179 130.505 90.8211 128.726 91.3685L132.968 96.979H128.863L124.758 91.5053ZM127.221 85.6211H122.295V88.3579H127.221C128.042 88.3579 128.589 87.6737 128.589 86.9895C128.589 86.3053 127.905 85.6211 127.221 85.6211ZM82.8842 96.979H79.1895L78.0948 94.5158H70.0211L68.9263 96.979H65.2316L72.4842 82.6106H75.7684L82.8842 96.979ZM73.9895 86.3053L71.5263 91.5053H76.5895L73.9895 86.3053ZM52.2316 88.0842H58.2527C58.9369 88.0842 59.4842 87.5369 59.4842 86.8527C59.4842 86.1685 58.9369 85.6211 58.2527 85.6211H52.2316V88.0842ZM52.2316 93.8316H58.3895C59.2105 93.8316 59.7579 93.2842 59.7579 92.4632C59.7579 91.6421 59.2105 91.0948 58.3895 91.0948H52.2316V93.8316ZM61.9474 89.4527C62.7684 90.2737 63.3158 91.3685 63.3158 92.6C63.3158 95.0632 61.4 96.979 58.9369 96.979H48.8105V82.6106H58.6632C60.9895 82.6106 62.9053 84.5263 62.9053 86.8527C62.9053 87.8106 62.4948 88.7684 61.9474 89.4527ZM96.8421 99.9895V103.137H87.2632V105.6H96.5684V108.747H87.2632V111.484H96.8421V114.632H83.8421V99.9895H96.8421ZM94.379 122.295C94.379 121.474 93.8316 120.926 93.0105 120.926H87.1263V123.663H93.0105C93.8316 123.663 94.379 123.116 94.379 122.295ZM83.7053 132.284V117.916H93.2842C95.7474 117.916 97.6632 119.968 97.6632 122.432C97.6632 124.347 96.5684 125.853 94.9263 126.537L99.3053 132.284H95.2L91.0948 126.811H87.1263V132.284H83.7053Z" fill="#10384F"/>
<path d="M142.137 86.7158C140.495 59.6211 117.916 38 90.2737 38C62.6316 38 40.0526 59.6211 38.4105 86.7158C38.4105 87.8105 38.5474 88.9053 38.6842 90C39.7789 99.0316 43.2 107.379 48.4 114.358C57.8421 127.221 73.0316 135.568 90.2737 135.568C66.1895 135.568 46.4842 116.821 44.8421 93.2842C44.7053 92.1895 44.7053 91.0947 44.7053 90C44.7053 88.9053 44.7053 87.8105 44.8421 86.7158C46.4842 63.1789 66.1895 44.4316 90.2737 44.4316C107.516 44.4316 122.705 52.7789 132.147 65.6421C137.347 72.6211 140.768 80.9684 141.863 90C142 91.0947 142.137 92.1895 142.137 93.1474C142.137 92.0526 142.274 90.9579 142.274 89.8632C142.274 88.9053 142.274 87.8105 142.137 86.7158Z" fill="#89D329"/>
<path d="M38.4105 93.2842C40.0526 120.379 62.6316 142 90.2737 142C117.916 142 140.495 120.379 142.137 93.2842C142.137 92.1894 142 91.0947 141.863 89.9999C140.768 80.9684 137.347 72.621 132.147 65.642C122.705 52.7789 107.516 44.4315 90.2737 44.4315C114.358 44.4315 134.063 63.1789 135.705 86.7157C135.842 87.8105 135.842 88.9052 135.842 89.9999C135.842 91.0947 135.842 92.1894 135.705 93.2842C134.063 116.958 114.358 135.568 90.2737 135.568C73.0316 135.568 57.8421 127.221 48.4 114.358C43.2 107.379 39.7789 99.0315 38.6842 89.9999C38.5474 88.9052 38.4105 87.8105 38.4105 86.8526C38.4105 87.9473 38.2737 89.042 38.2737 90.1368C38.2737 91.0947 38.2737 92.1894 38.4105 93.2842Z" fill="#00BCFF"/>
</g>
<defs>
<clipPath id="clip0_11_238">
<rect width="104" height="104" fill="white" transform="translate(38 38)"/>
</clipPath>
</defs>
</svg>
