<svg width="186" height="104" viewBox="0 0 186 104" fill="none" xmlns="http://www.w3.org/2000/svg">
<g clip-path="url(#clip0_5_75)">
<path d="M112.875 107.298L91.8986 113.888C85.9878 110.958 79.8025 107.607 73.5931 103.812L92.5001 98.718L68.5735 100.645C62.1566 96.4713 55.8221 91.8415 49.872 86.7548L65.9299 83.1818L46.8921 84.137C39.7532 77.6984 33.343 70.6374 28.2433 63.0062L51.7137 59.0694L25.8978 59.2896C20.6299 50.4625 17.2575 41.0841 16.5579 31.334L29.5736 29.9717L16.4545 29.4622C16.2779 24.6241 16.7838 19.7853 17.9571 15.0883C17.9571 15.0883 28.0068 16.8381 41.6974 21.4614L43.2251 33.7136L47.3953 23.4826C54.2681 26.04 61.7759 29.2762 69.3279 33.3417L65.7993 44.9018L72.7295 35.23C76.475 37.371 80.2224 39.728 83.9078 42.325L81.9329 49.9893L85.9544 43.7977C90.8311 47.3654 95.4311 51.2968 99.7151 55.558L97.0309 73.3237L103.047 59.0279C107.274 63.6215 111.103 68.5659 114.493 73.8075L112.939 88.1422L116.769 77.4779C124.728 90.8773 131.108 107.949 134.514 130.416C134.514 130.416 118.516 126.372 97.4781 116.569L112.875 107.298Z" fill="url(#paint0_linear_5_75)"/>
<mask id="mask0_5_75" style="mask-type:luminance" maskUnits="userSpaceOnUse" x="16" y="15" width="119" height="116">
<path fill-rule="evenodd" clip-rule="evenodd" d="M112.875 107.298L91.8986 113.888C85.9878 110.958 79.8025 107.607 73.5931 103.812L92.5001 98.718L68.5735 100.645C62.1566 96.4713 55.8221 91.8415 49.872 86.7548L65.9299 83.1818L46.8921 84.137C39.7532 77.6984 33.343 70.6374 28.2433 63.0062L51.7137 59.0694L25.8978 59.2896C20.6299 50.4625 17.2575 41.0841 16.5579 31.334L29.5736 29.9717L16.4545 29.4622C16.2779 24.6241 16.7838 19.7853 17.9571 15.0883C17.9571 15.0883 28.0068 16.8381 41.6974 21.4614L43.2251 33.7136L47.3953 23.4826C54.2681 26.04 61.7759 29.2762 69.3279 33.3417L65.7993 44.9018L72.7295 35.23C76.475 37.371 80.2224 39.728 83.9078 42.325L81.9329 49.9893L85.9544 43.7977C90.8311 47.3654 95.4311 51.2968 99.7151 55.558L97.0309 73.3237L103.047 59.0279C107.274 63.6215 111.103 68.5659 114.493 73.8075L112.939 88.1422L116.769 77.4779C124.728 90.8773 131.108 107.949 134.514 130.416C134.514 130.416 118.516 126.372 97.4781 116.569L112.875 107.298Z" fill="white"/>
</mask>
<g mask="url(#mask0_5_75)">
<path d="M-13.2924 107.858L-39.0867 34.971C-39.0867 34.971 79.972 33.6955 150.796 56.6004C221.62 79.5054 149.785 120.563 149.785 120.563L14.4607 92.3326L-3.81274 85.0287" fill="url(#paint1_linear_5_75)"/>
<mask id="mask1_5_75" style="mask-type:luminance" maskUnits="userSpaceOnUse" x="-40" y="34" width="223" height="87">
<path fill-rule="evenodd" clip-rule="evenodd" d="M-13.2924 107.858L-39.0867 34.971C-39.0867 34.971 79.972 33.6955 150.796 56.6004C221.62 79.5054 149.785 120.563 149.785 120.563L14.4607 92.3326L-3.81274 85.0287" fill="white"/>
</mask>
<g mask="url(#mask1_5_75)">
<path d="M76.5213 34.8181C129.348 48.2472 35.3268 67.7207 58.5288 71.6724C81.7307 75.6241 156.491 72.098 156.491 72.098L166.714 49.9527L94.9667 27.3372" fill="url(#paint2_linear_5_75)"/>
</g>
</g>
<path d="M104.878 103.896L94.2123 88.7032C95.0576 83.1982 96.1723 77.3644 97.6378 71.3979L106.571 85.3076L98.9017 66.5493C100.619 60.3189 102.724 54.0381 105.295 47.9498L112.276 59.9561L106.639 44.8827C109.994 37.4922 114.036 30.5287 118.871 24.4739L128.041 42.3512L121.262 21.6361C127.017 15.1401 133.7 10.0282 141.366 6.97178L145.791 17.0957L142.846 6.40989C146.693 5.03055 150.716 4.20006 154.795 3.9429C154.795 3.9429 155.958 12.4763 155.739 24.674L146.272 29.0368L155.57 29.7755C155.257 36.5434 154.481 43.282 153.247 49.9438L143.043 50.0611L152.597 53.1636C151.833 56.7248 150.894 60.3427 149.748 63.9721L143.076 64.3432L149.086 65.9954C147.463 70.8316 145.476 75.5382 143.143 80.0749L128.162 82.4586L141.203 83.6433C138.588 88.2189 135.589 92.5641 132.239 96.6322L120.308 99.048L129.868 99.4022C121.122 109.233 109.018 118.732 91.812 127.218C91.812 127.218 90.9747 113.312 93.4814 93.8783L104.878 103.896Z" fill="url(#paint3_linear_5_75)"/>
<mask id="mask2_5_75" style="mask-type:luminance" maskUnits="userSpaceOnUse" x="91" y="3" width="65" height="125">
<path fill-rule="evenodd" clip-rule="evenodd" d="M104.878 103.896L94.2123 88.7032C95.0576 83.1982 96.1723 77.3644 97.6378 71.3979L106.571 85.3076L98.9017 66.5493C100.619 60.3189 102.724 54.0381 105.295 47.9498L112.276 59.9561L106.639 44.8827C109.994 37.4922 114.036 30.5287 118.871 24.4739L128.041 42.3512L121.262 21.6361C127.017 15.1401 133.7 10.0282 141.366 6.97178L145.791 17.0957L142.846 6.40989C146.693 5.03055 150.716 4.20006 154.795 3.9429C154.795 3.9429 155.958 12.4763 155.739 24.674L146.272 29.0368L155.57 29.7755C155.257 36.5434 154.481 43.282 153.247 49.9438L143.043 50.0611L152.597 53.1636C151.833 56.7248 150.894 60.3427 149.748 63.9721L143.076 64.3432L149.086 65.9954C147.463 70.8316 145.476 75.5382 143.143 80.0749L128.162 82.4586L141.203 83.6433C138.588 88.2189 135.589 92.5641 132.239 96.6322L120.308 99.048L129.868 99.4022C121.122 109.233 109.018 118.732 91.812 127.218C91.812 127.218 90.9747 113.312 93.4814 93.8783L104.878 103.896Z" fill="white"/>
</mask>
<g mask="url(#mask2_5_75)">
<path d="M72.1616 2.52492L124.209 -36.8695C124.209 -36.8695 155.684 58.5983 155.368 121.441C155.052 184.283 103.645 136.985 103.645 136.985L91.7508 20.8844L92.9541 4.31376" fill="url(#paint4_linear_5_75)"/>
<mask id="mask3_5_75" style="mask-type:luminance" maskUnits="userSpaceOnUse" x="72" y="-37" width="84" height="192">
<path fill-rule="evenodd" clip-rule="evenodd" d="M72.1616 2.52492L124.209 -36.8695C124.209 -36.8695 155.684 58.5983 155.368 121.441C155.052 184.283 103.645 136.985 103.645 136.985L91.7508 20.8844L92.9541 4.31376" fill="white"/>
</mask>
<g mask="url(#mask3_5_75)">
<path d="M153.898 56.109C156.604 102.047 116.89 31.3788 119.644 51.0576C122.398 70.7363 144.355 129.986 144.355 129.986L164.787 132.548L164.635 69.0369" fill="url(#paint5_linear_5_75)"/>
</g>
</g>
<path d="M53 99C58 96.3333 64 96.3333 69 99C74 101.667 80 101.667 85 99C90 96.3333 96 96.3333 101 99C106 101.667 112 101.667 117 99C122 96.3333 128 96.3333 133 99" stroke="#323232" stroke-width="6" stroke-linecap="round" stroke-linejoin="round"/>
<path d="M53 71H133" stroke="#323232" stroke-width="6" stroke-linecap="round" stroke-linejoin="round"/>
<path d="M65 47V71" stroke="#323232" stroke-width="6" stroke-linecap="round" stroke-linejoin="round"/>
<path d="M53 85C58 82.3333 64 82.3333 69 85C74 87.6667 80 87.6667 85 85C90 82.3333 96 82.3333 101 85C106 87.6667 112 87.6667 117 85C122 82.3333 128 82.3333 133 85" stroke="#323232" stroke-width="6" stroke-linecap="round" stroke-linejoin="round"/>
<ellipse cx="65" cy="43" rx="12" ry="16" fill="#E5F9E2" stroke="#323232" stroke-width="6" stroke-linecap="round" stroke-linejoin="round"/>
<path d="M92.0874 59.0868C92.5099 52.6524 97.6024 47.5094 104.032 47.0236C110.462 46.5377 116.27 50.8569 117.654 57.1548" stroke="#323232" stroke-width="6" stroke-linecap="round" stroke-linejoin="round"/>
<path d="M92.0877 59.0869C89.2542 59.3208 86.6575 60.7602 84.9577 63.0393C83.2579 65.3184 82.6187 68.2177 83.2025 71.0002" stroke="#323232" stroke-width="6" stroke-linecap="round" stroke-linejoin="round"/>
<path d="M117.654 57.1548C120.786 57.5948 123.571 59.3763 125.284 62.0351C126.997 64.6939 127.467 67.9665 126.573 71" stroke="#323232" stroke-width="6" stroke-linecap="round" stroke-linejoin="round"/>
</g>
<defs>
<linearGradient id="paint0_linear_5_75" x1="135.772" y1="136.893" x2="22.016" y2="143.14" gradientUnits="userSpaceOnUse">
<stop stop-color="#8FF490"/>
<stop offset="1" stop-color="#45CEB5"/>
</linearGradient>
<linearGradient id="paint1_linear_5_75" x1="29.668" y1="-24.8614" x2="33.2704" y2="-8.00098" gradientUnits="userSpaceOnUse">
<stop stop-color="#8FF490"/>
<stop offset="1" stop-color="#45CEB5"/>
</linearGradient>
<linearGradient id="paint2_linear_5_75" x1="125.328" y1="-26.4154" x2="147.617" y2="55.1421" gradientUnits="userSpaceOnUse">
<stop stop-color="#8FF490"/>
<stop offset="1" stop-color="#45CEB5"/>
</linearGradient>
<linearGradient id="paint3_linear_5_75" x1="92.9243" y1="126.787" x2="60.2125" y2="36.3203" gradientUnits="userSpaceOnUse">
<stop stop-color="#8FF490"/>
<stop offset="1" stop-color="#45CEB5"/>
</linearGradient>
<linearGradient id="paint4_linear_5_75" x1="189.574" y1="5.25314" x2="176.818" y2="11.1771" gradientUnits="userSpaceOnUse">
<stop stop-color="#8FF490"/>
<stop offset="1" stop-color="#45CEB5"/>
</linearGradient>
<linearGradient id="paint5_linear_5_75" x1="211.581" y1="82.6866" x2="151.89" y2="115.675" gradientUnits="userSpaceOnUse">
<stop stop-color="#8FF490"/>
<stop offset="1" stop-color="#45CEB5"/>
</linearGradient>
<clipPath id="clip0_5_75">
<rect width="186" height="104" rx="16" fill="white"/>
</clipPath>
</defs>
</svg>
